<?xml version="1.0" encoding="UTF-8"?>
<svg xmlns="http://www.w3.org/2000/svg" width="108px" height="108px"
     viewBox="0 0 108 108" version="1.1">
    <g id="surface1">
        <path style=" stroke:none;fill-rule:evenodd;fill:rgb(100%,100%,100%);fill-opacity:1;"
              d="M 40.09375 17.367188 C 39.988281 17.4375 39.957031 19.875 39.933594 28.734375 L 39.90625 40.015625 L 28.621094 40.066406 L 17.335938 40.121094 L 17.335938 42.605469 L 39.90625 42.714844 L 39.933594 54.136719 C 39.949219 60.417969 39.949219 65.566406 39.933594 65.582031 C 39.917969 65.597656 34.828125 65.632812 28.621094 65.664062 L 17.335938 65.71875 L 17.335938 68.09375 L 39.90625 68.203125 L 40.015625 90.664062 L 42.496094 90.664062 L 42.527344 79.460938 L 42.554688 68.261719 L 42.796875 68.203125 C 42.929688 68.167969 48.066406 68.15625 54.214844 68.171875 L 65.394531 68.203125 L 65.449219 90.609375 L 65.691406 90.667969 C 65.824219 90.703125 66.394531 90.714844 66.960938 90.699219 L 67.984375 90.664062 L 68.09375 68.203125 L 90.664062 68.09375 L 90.726562 65.664062 L 79.503906 65.664062 C 70.183594 65.664062 68.261719 65.640625 68.160156 65.515625 C 68.070312 65.410156 68.046875 62.324219 68.066406 54.042969 L 68.09375 42.714844 L 90.664062 42.605469 L 90.664062 40.121094 L 79.378906 40.066406 L 68.09375 40.015625 L 67.984375 17.335938 L 66.960938 17.300781 C 66.394531 17.285156 65.824219 17.296875 65.691406 17.332031 L 65.449219 17.390625 L 65.394531 40.015625 L 42.605469 40.015625 L 42.578125 28.734375 C 42.558594 19.875 42.523438 17.4375 42.417969 17.367188 C 42.34375 17.320312 41.820312 17.285156 41.257812 17.285156 C 40.691406 17.285156 40.167969 17.320312 40.09375 17.367188 M 52.757812 25.507812 C 52.125 25.742188 51.839844 26.015625 51.839844 26.394531 C 51.839844 26.890625 51.914062 26.921875 52.421875 26.625 C 54.714844 25.28125 55.816406 27.488281 53.753906 29.296875 C 51.945312 30.878906 51.625 31.328125 51.625 32.285156 L 51.625 32.835938 L 53.863281 32.808594 L 56.105469 32.777344 L 56.105469 32.023438 L 52.972656 31.914062 L 52.941406 31.628906 C 52.914062 31.394531 53.027344 31.238281 53.582031 30.765625 C 55.96875 28.71875 56.433594 27.851562 55.882812 26.472656 C 55.523438 25.578125 53.90625 25.082031 52.757812 25.507812 M 79.859375 25.566406 C 79.796875 25.613281 79.609375 25.894531 79.4375 26.191406 C 78.894531 27.136719 77.914062 28.539062 77.175781 29.417969 C 76.539062 30.183594 76.464844 30.320312 76.464844 30.742188 L 76.464844 31.210938 L 78.082031 31.210938 C 79.945312 31.210938 79.921875 31.199219 79.921875 32.238281 L 79.921875 32.84375 L 80.433594 32.8125 L 80.945312 32.777344 L 81 32.023438 L 81.054688 31.265625 L 81.539062 31.210938 C 82.011719 31.160156 82.027344 31.148438 82.027344 30.78125 C 82.027344 30.410156 82.011719 30.402344 81.539062 30.347656 L 81.054688 30.292969 L 80.945312 25.542969 L 80.460938 25.515625 C 80.191406 25.5 79.921875 25.523438 79.859375 25.566406 M 79.855469 27.710938 C 79.960938 27.988281 79.929688 29.769531 79.8125 30.074219 C 79.707031 30.351562 79.691406 30.355469 78.769531 30.324219 C 77.625 30.285156 77.613281 30.257812 78.324219 29.308594 C 78.636719 28.890625 79.050781 28.320312 79.242188 28.042969 C 79.613281 27.507812 79.75 27.433594 79.855469 27.710938 M 65.421875 54.042969 C 65.441406 62.324219 65.417969 65.410156 65.328125 65.515625 C 65.160156 65.71875 42.882812 65.738281 42.679688 65.535156 C 42.488281 65.339844 42.492188 42.808594 42.6875 42.730469 C 42.761719 42.699219 47.902344 42.683594 54.109375 42.695312 L 65.394531 42.714844 L 65.421875 54.042969 M 78.761719 51.445312 C 77.710938 51.976562 77.660156 52.019531 77.65625 52.347656 C 77.652344 52.8125 77.742188 52.839844 78.421875 52.601562 C 79.238281 52.3125 79.214844 52.226562 79.25 55.46875 L 79.28125 58.332031 L 79.789062 58.296875 L 80.296875 58.265625 L 80.328125 54.714844 C 80.363281 50.308594 80.492188 50.578125 78.761719 51.445312 M 26.785156 51.21875 C 26.628906 51.585938 26.46875 54.566406 26.597656 54.730469 C 26.664062 54.816406 27 54.863281 27.539062 54.863281 C 28.789062 54.863281 29.230469 55.089844 29.472656 55.851562 C 29.851562 57.027344 28.609375 57.902344 27.113281 57.519531 C 26.742188 57.425781 26.421875 57.347656 26.398438 57.347656 C 26.277344 57.347656 26.371094 58.109375 26.507812 58.242188 C 26.703125 58.441406 27.796875 58.566406 28.507812 58.472656 C 31.402344 58.089844 31.433594 54 28.535156 54 C 27.582031 54 27.5 53.898438 27.609375 52.859375 L 27.703125 52.003906 L 28.996094 51.9375 C 30.53125 51.855469 30.347656 51.917969 30.347656 51.472656 C 30.347656 50.992188 30.292969 50.976562 28.445312 50.976562 C 26.933594 50.976562 26.882812 50.984375 26.785156 51.21875 M 27.109375 76.480469 C 26.675781 76.601562 26.460938 76.832031 26.460938 77.179688 C 26.460938 77.519531 26.617188 77.582031 26.992188 77.386719 C 28.023438 76.851562 29.203125 77.382812 29.203125 78.382812 C 29.203125 79.199219 28.585938 79.695312 27.570312 79.703125 C 27.039062 79.703125 26.800781 79.976562 27 80.351562 C 27.09375 80.527344 27.226562 80.566406 27.683594 80.566406 C 28.792969 80.566406 29.542969 81.175781 29.445312 82.003906 C 29.328125 82.988281 28.132812 83.425781 26.867188 82.945312 C 26.554688 82.824219 26.285156 82.726562 26.269531 82.726562 C 26.015625 82.726562 26.296875 83.699219 26.585938 83.796875 C 27.085938 83.972656 28.769531 83.945312 29.222656 83.757812 C 30.878906 83.066406 31.152344 81.09375 29.691406 80.347656 C 29.171875 80.082031 29.167969 80.019531 29.644531 79.65625 C 31.589844 78.171875 29.667969 75.769531 27.109375 76.480469 M 53.113281 76.457031 C 51.722656 76.90625 51.359375 78.300781 52.316406 79.519531 L 52.640625 79.929688 L 52.203125 80.351562 C 50.300781 82.195312 52.722656 84.859375 55.253906 83.710938 C 56.515625 83.136719 56.78125 81.449219 55.78125 80.386719 L 55.300781 79.878906 L 55.570312 79.546875 C 56.972656 77.84375 55.304688 75.746094 53.113281 76.457031 M 54.679688 77.519531 C 55.027344 77.886719 55.148438 78.398438 54.96875 78.746094 C 54.351562 79.941406 52.921875 79.667969 52.921875 78.355469 C 52.921875 77.324219 54 76.8125 54.679688 77.519531 M 54.878906 80.789062 C 56.015625 81.980469 54.667969 83.796875 53.277344 82.949219 C 52.828125 82.675781 52.679688 82.378906 52.679688 81.753906 C 52.679688 80.453125 54.007812 79.871094 54.878906 80.789062 "/>
        <path style=" stroke:none;fill-rule:evenodd;fill:rgb(19.607843%,43.529412%,86.666667%);fill-opacity:1;"
              d="M 24.375 25.421875 C 21.953125 26.324219 22.125 28.347656 24.734375 29.691406 C 26.089844 30.386719 26.351562 30.738281 26.070312 31.476562 C 25.871094 31.988281 24.523438 32.128906 23.496094 31.746094 C 22.773438 31.476562 22.679688 31.519531 22.679688 32.132812 C 22.679688 33.363281 25.964844 33.46875 27.074219 32.277344 C 28.15625 31.113281 27.519531 29.683594 25.4375 28.601562 C 24.410156 28.066406 24.082031 27.765625 24.085938 27.355469 C 24.097656 26.53125 25.421875 26.089844 26.613281 26.511719 C 26.847656 26.597656 27.078125 26.640625 27.128906 26.609375 C 27.285156 26.511719 27.226562 25.628906 27.050781 25.484375 C 26.796875 25.277344 24.886719 25.230469 24.375 25.421875 M 28.71875 27.769531 C 28.4375 28.300781 28.636719 31.765625 28.980469 32.28125 C 29.527344 33.113281 30.613281 33.328125 31.613281 32.804688 C 32.140625 32.527344 32.164062 32.527344 32.214844 32.730469 C 32.289062 33.007812 33.308594 33.042969 33.414062 32.769531 C 33.546875 32.429688 33.488281 27.804688 33.351562 27.667969 C 33.152344 27.472656 32.328125 27.503906 32.25 27.710938 C 32.214844 27.804688 32.183594 28.609375 32.183594 29.5 C 32.183594 31.589844 31.953125 32.074219 30.972656 32.074219 C 30.109375 32.074219 29.914062 31.59375 29.914062 29.445312 C 29.914062 27.613281 29.890625 27.539062 29.25 27.539062 C 28.945312 27.539062 28.8125 27.597656 28.71875 27.769531 M 47.648438 51.003906 C 47.550781 51.125 47.523438 52.035156 47.546875 54.769531 L 47.574219 58.375 L 49.300781 58.375 C 51.011719 58.375 51.035156 58.371094 51.730469 58.039062 C 54.726562 56.601562 54.640625 52.101562 51.601562 51.136719 C 50.78125 50.875 47.835938 50.777344 47.648438 51.003906 M 51.042969 52.214844 C 53.121094 52.832031 53.03125 56.449219 50.917969 57.171875 C 50.308594 57.378906 49.132812 57.40625 48.945312 57.21875 C 48.804688 57.078125 48.75 52.265625 48.886719 52.128906 C 49.019531 51.996094 50.5 52.054688 51.042969 52.214844 M 56.441406 53.128906 C 53.96875 54.125 54.273438 58 56.863281 58.535156 C 59.066406 58.992188 60.792969 57.175781 60.261719 54.957031 C 59.859375 53.285156 58.121094 52.453125 56.441406 53.128906 M 58.398438 54.171875 C 59.285156 54.734375 59.214844 56.789062 58.289062 57.351562 C 57.015625 58.128906 55.710938 56.742188 56.15625 55.085938 C 56.433594 54.066406 57.527344 53.621094 58.398438 54.171875 M 73.761719 76.628906 C 73.699219 76.792969 73.65625 78.308594 73.65625 80.292969 C 73.65625 84.082031 73.628906 83.953125 74.429688 83.894531 L 74.898438 83.863281 L 74.953125 82.296875 C 75.019531 80.390625 75.050781 80.367188 76.015625 81.648438 C 76.394531 82.152344 76.941406 82.871094 77.234375 83.242188 L 77.761719 83.914062 L 78.453125 83.914062 C 79.351562 83.914062 79.371094 83.8125 78.648438 82.945312 C 77.457031 81.515625 76.355469 80.117188 76.355469 80.03125 C 76.355469 79.921875 76.808594 79.339844 78.242188 77.597656 C 79.085938 76.570312 79.101562 76.421875 78.339844 76.378906 C 77.6875 76.339844 77.722656 76.3125 76.273438 78.191406 C 75.027344 79.8125 75.019531 79.8125 74.953125 77.921875 L 74.898438 76.410156 L 74.382812 76.378906 C 73.917969 76.347656 73.863281 76.367188 73.761719 76.628906 M 80.164062 78.640625 C 79.925781 78.878906 79.984375 82.457031 80.234375 83.007812 C 80.71875 84.082031 81.886719 84.394531 83.003906 83.75 C 83.433594 83.503906 83.445312 83.503906 83.570312 83.707031 C 83.722656 83.949219 84.542969 84.003906 84.757812 83.785156 C 84.941406 83.601562 84.941406 78.828125 84.757812 78.644531 C 84.617188 78.503906 83.933594 78.472656 83.738281 78.597656 C 83.65625 78.652344 83.597656 79.273438 83.570312 80.40625 C 83.511719 82.570312 83.285156 83.050781 82.332031 83.050781 C 81.488281 83.050781 81.296875 82.589844 81.222656 80.351562 L 81.160156 78.570312 L 80.730469 78.539062 C 80.488281 78.519531 80.238281 78.566406 80.164062 78.640625 "/>
    </g>
</svg>
