<svg id="svg"
     version="1.1"
     xmlns="http://www.w3.org/2000/svg"
     width="400"
     height="400"
     viewBox="0, 0, 400,400">
    <g id="svg">
        <path
                id="path0"
                d="M148.502 64.329 C 148.111 64.577,147.982 73.610,147.902 106.422 L 147.800 148.200 106.000 148.400 L 64.200 148.600 64.200 153.200 L 64.200 157.800 106.000 158.000 L 147.800 158.200 147.902 200.500 C 147.958 223.765,147.958 242.843,147.902 242.895 C 147.846 242.948,128.990 243.083,106.000 243.195 L 64.200 243.400 64.200 247.800 L 64.200 252.200 106.000 252.400 L 147.800 252.600 148.000 294.200 L 148.200 335.800 152.800 335.800 L 157.400 335.800 157.502 294.307 L 157.604 252.814 158.502 252.597 C 158.996 252.478,178.030 252.430,200.800 252.490 L 242.200 252.600 242.302 294.093 L 242.404 335.586 243.302 335.810 C 243.796 335.934,245.910 335.982,248.000 335.917 L 251.800 335.800 252.000 294.200 L 252.200 252.600 294.000 252.400 L 335.800 252.200 335.913 247.700 L 336.026 243.200 294.462 243.200 C 259.935 243.200,252.822 243.108,252.447 242.657 C 252.118 242.260,252.024 230.828,252.098 200.157 L 252.200 158.200 294.000 158.000 L 335.800 157.800 335.800 153.200 L 335.800 148.600 294.000 148.400 L 252.200 148.200 252.000 106.200 L 251.800 64.200 248.000 64.083 C 245.910 64.018,243.796 64.066,243.302 64.190 L 242.404 64.414 242.302 106.307 L 242.200 148.200 200.000 148.200 L 157.800 148.200 157.698 106.422 C 157.618 73.610,157.489 64.577,157.098 64.329 C 156.824 64.155,154.890 64.012,152.800 64.012 C 150.710 64.012,148.776 64.155,148.502 64.329 M195.400 94.469 C 193.055 95.339,192.000 96.360,192.000 97.761 C 192.000 99.593,192.281 99.704,194.153 98.607 C 202.644 93.631,206.724 101.813,199.086 108.500 C 192.391 114.361,191.200 116.032,191.200 119.569 L 191.200 121.616 199.500 121.508 L 207.800 121.400 207.800 120.000 L 207.800 118.600 202.000 118.400 L 196.200 118.200 196.078 117.143 C 195.977 116.276,196.402 115.703,198.454 113.943 C 207.296 106.359,209.014 103.150,206.970 98.042 C 205.649 94.740,199.658 92.891,195.400 94.469 M295.781 94.696 C 295.550 94.863,294.845 95.900,294.214 97.000 C 292.199 100.512,288.564 105.704,285.842 108.956 C 283.473 111.786,283.200 112.292,283.200 113.856 L 283.200 115.600 289.186 115.600 C 296.093 115.600,296.000 115.548,296.000 119.396 L 296.000 121.644 297.900 121.522 L 299.800 121.400 300.000 118.600 L 300.200 115.800 302.000 115.600 C 303.752 115.405,303.800 115.363,303.800 114.000 C 303.800 112.637,303.752 112.595,302.000 112.400 L 300.200 112.200 300.000 103.400 L 299.800 94.600 298.000 94.496 C 297.010 94.438,296.011 94.528,295.781 94.696 M295.757 102.633 C 296.150 103.657,296.035 110.256,295.604 111.390 C 295.214 112.415,295.153 112.429,291.736 112.316 C 287.497 112.174,287.452 112.071,290.093 108.546 C 291.252 106.999,292.781 104.894,293.492 103.867 C 294.863 101.885,295.365 101.611,295.757 102.633 M242.302 200.157 C 242.376 230.828,242.282 242.260,241.953 242.657 C 241.328 243.410,158.832 243.472,158.080 242.720 C 157.365 242.005,157.385 158.554,158.100 158.264 C 158.375 158.152,177.410 158.092,200.400 158.131 L 242.200 158.200 242.302 200.157 M291.713 190.545 C 287.823 192.501,287.625 192.662,287.613 193.876 C 287.596 195.596,287.930 195.707,290.445 194.816 C 293.473 193.745,293.384 193.438,293.519 205.440 L 293.638 216.042 295.519 215.921 L 297.400 215.800 297.506 202.648 C 297.636 186.326,298.116 187.327,291.713 190.545 M99.198 189.700 C 98.619 191.052,98.030 202.097,98.505 202.700 C 98.759 203.023,99.995 203.200,102.000 203.200 C 106.628 203.200,108.255 204.030,109.163 206.853 C 110.565 211.207,105.966 214.457,100.416 213.035 C 99.052 212.686,97.860 212.400,97.768 212.400 C 97.326 212.400,97.670 215.213,98.174 215.717 C 98.907 216.450,102.952 216.913,105.580 216.565 C 116.312 215.141,116.414 200.000,105.692 200.000 C 102.158 200.000,101.854 199.626,102.263 195.778 L 102.600 192.600 107.400 192.354 C 113.073 192.064,112.400 192.294,112.400 190.643 C 112.400 188.853,112.199 188.800,105.359 188.800 C 99.750 188.800,99.572 188.826,99.198 189.700 M100.400 283.261 C 98.792 283.708,98.000 284.563,98.000 285.853 C 98.000 287.110,98.580 287.335,99.968 286.616 C 103.797 284.637,108.154 286.604,108.154 290.313 C 108.154 293.328,105.871 295.172,102.114 295.191 C 100.142 295.201,99.256 296.210,100.000 297.600 C 100.345 298.244,100.838 298.400,102.529 298.400 C 106.644 298.400,109.414 300.658,109.052 303.716 C 108.619 307.367,104.193 308.982,99.504 307.200 C 98.347 306.760,97.355 306.400,97.300 306.400 C 96.347 306.398,97.399 309.991,98.460 310.361 C 100.322 311.010,106.552 310.914,108.236 310.211 C 114.373 307.647,115.374 300.341,109.966 297.583 C 108.047 296.604,108.033 296.375,109.800 295.027 C 117.005 289.532,109.888 280.624,100.400 283.261 M196.717 283.171 C 191.565 284.838,190.224 290.001,193.769 294.516 L 194.959 296.032 193.349 297.594 C 186.306 304.430,195.264 314.295,204.646 310.035 C 209.319 307.913,210.306 301.659,206.590 297.725 L 204.816 295.846 205.823 294.623 C 211.016 288.316,204.836 280.544,196.717 283.171 M202.518 287.114 C 203.810 288.463,204.258 290.358,203.590 291.651 C 201.304 296.076,196.000 295.062,196.000 290.200 C 196.000 286.386,200.004 284.491,202.518 287.114 M203.262 299.217 C 207.459 303.629,202.469 310.356,197.326 307.220 C 195.661 306.205,195.108 305.101,195.108 302.796 C 195.108 297.981,200.030 295.820,203.262 299.217 "
                stroke="none"
                fill="#ffffff"
                fill-rule="evenodd"/>
        <path
                id="path1"
                d="M90.281 94.151 C 81.313 97.502,81.942 104.987,91.610 109.961 C 96.635 112.547,97.603 113.843,96.552 116.582 C 95.823 118.481,90.833 119.000,87.020 117.573 C 84.347 116.573,84.000 116.739,84.000 119.013 C 84.000 123.563,96.165 123.956,100.273 119.539 C 104.282 115.229,101.931 109.942,94.220 105.931 C 90.412 103.949,89.196 102.829,89.213 101.318 C 89.248 98.260,94.158 96.623,98.574 98.196 C 99.439 98.504,100.294 98.666,100.474 98.555 C 101.062 98.191,100.836 94.928,100.185 94.387 C 99.254 93.615,92.169 93.446,90.281 94.151 M106.371 102.855 C 105.321 104.815,106.058 117.644,107.330 119.566 C 109.367 122.645,113.377 123.437,117.091 121.495 C 119.039 120.476,119.124 120.466,119.321 121.218 C 119.592 122.255,123.368 122.382,123.757 121.367 C 124.242 120.103,124.027 102.987,123.520 102.480 C 122.790 101.750,119.738 101.864,119.443 102.633 C 119.309 102.981,119.200 105.960,119.200 109.253 C 119.200 116.995,118.351 118.800,114.711 118.800 C 111.515 118.800,110.800 117.019,110.800 109.054 C 110.800 102.274,110.704 102.000,108.334 102.000 C 107.205 102.000,106.714 102.214,106.371 102.855 M176.482 188.901 C 176.108 189.351,176.015 192.727,176.095 202.848 L 176.200 216.200 182.600 216.200 C 188.939 216.200,189.025 216.188,191.600 214.955 C 202.693 209.642,202.376 192.974,191.114 189.397 C 188.079 188.433,177.177 188.064,176.482 188.901 M189.044 193.391 C 196.741 195.676,196.407 209.078,188.586 211.743 C 186.333 212.511,181.976 212.616,181.280 211.920 C 180.760 211.400,180.559 193.575,181.067 193.067 C 181.561 192.573,187.038 192.795,189.044 193.391 M209.037 196.780 C 199.887 200.466,201.014 214.810,210.610 216.802 C 218.762 218.494,225.153 211.758,223.188 203.544 C 221.706 197.349,215.266 194.270,209.037 196.780 M216.292 200.643 C 219.578 202.724,219.313 210.323,215.881 212.416 C 211.170 215.288,206.340 210.153,207.992 204.028 C 209.011 200.249,213.061 198.598,216.292 200.643 M273.198 283.804 C 272.965 284.419,272.800 290.027,272.800 297.377 C 272.800 311.411,272.698 310.938,275.670 310.724 L 277.400 310.600 277.600 304.800 C 277.843 297.741,277.972 297.663,281.536 302.400 C 282.942 304.270,284.975 306.925,286.053 308.300 L 288.013 310.800 290.573 310.800 C 293.896 310.800,293.971 310.422,291.289 307.206 C 286.874 301.912,282.800 296.729,282.800 296.405 C 282.800 296.012,284.475 293.854,289.787 287.401 C 292.918 283.599,292.962 283.045,290.148 282.881 C 287.737 282.740,287.859 282.633,282.501 289.600 C 277.883 295.606,277.850 295.599,277.600 288.600 L 277.400 283.000 275.498 282.878 C 273.764 282.767,273.562 282.848,273.198 283.804 M296.898 291.262 C 296.020 292.140,296.234 305.395,297.159 307.431 C 298.964 311.408,303.282 312.568,307.422 310.190 C 309.008 309.278,309.054 309.275,309.525 310.029 C 310.084 310.923,313.116 311.124,313.920 310.320 C 314.601 309.639,314.601 291.961,313.920 291.280 C 313.394 290.754,310.871 290.638,310.143 291.106 C 309.843 291.299,309.627 293.610,309.517 297.800 C 309.305 305.813,308.469 307.600,304.927 307.600 C 301.808 307.600,301.106 305.890,300.824 297.600 L 300.600 291.000 298.998 290.882 C 298.099 290.815,297.178 290.982,296.898 291.262 "
                stroke="none"
                fill="#326fdd"
                fill-rule="evenodd"/>
    </g>
</svg>
